<?xml version="1.0" standalone="no"?>
<!DOCTYPE svg PUBLIC "-//W3C//DTD SVG 20010904//EN"
 "http://www.w3.org/TR/2001/REC-SVG-20010904/DTD/svg10.dtd">
<svg version="1.0" xmlns="http://www.w3.org/2000/svg"
 width="260.000000pt" height="260.000000pt" viewBox="0 0 260.000000 260.000000"
 preserveAspectRatio="xMidYMid meet">
<metadata>
Created by potrace 1.11, written by Peter Selinger 2001-2013
</metadata>
<g transform="translate(0.000000,260.000000) scale(0.100000,-0.100000)"
fill="#000000" stroke="none">
<path d="M866 1901 c-3 -4 -20 -12 -38 -16 -31 -7 -37 -9 -55 -15 -5 -1 -11
-2 -15 -1 -5 0 -8 -3 -8 -7 0 -5 -19 -17 -42 -28 -51 -22 -55 -25 -117 -87
-59 -58 -81 -101 -81 -159 0 -45 23 -81 65 -104 22 -11 106 -12 146 0 56 16
77 116 26 130 -28 7 -29 5 -13 -35 14 -35 11 -64 -5 -53 -5 3 -9 1 -9 -5 0
-20 -83 -5 -102 19 -40 49 24 162 135 239 59 40 151 82 195 87 65 8 103 -35
77 -87 -26 -50 -123 -184 -162 -225 -7 -7 -13 -16 -13 -21 0 -4 -14 -24 -30
-43 -16 -19 -30 -38 -30 -42 0 -4 -6 -13 -13 -20 -28 -29 -90 -173 -95 -220
-5 -54 10 -94 38 -101 23 -6 33 1 52 38 43 84 50 95 59 95 5 0 9 4 9 10 0 9
25 40 78 95 12 13 22 26 22 29 0 5 124 129 154 154 25 20 19 -2 -6 -25 -59
-52 -118 -165 -125 -238 -15 -149 63 -317 173 -370 67 -33 174 -20 211 25 7 8
13 11 13 5 0 -5 11 7 25 28 14 20 30 37 35 37 6 0 10 7 10 15 0 9 7 18 15 21
8 4 15 12 15 20 0 8 5 14 10 14 6 0 10 7 10 15 0 8 5 15 10 15 6 0 10 7 10 15
0 8 4 15 8 15 5 0 14 11 20 25 17 36 28 31 55 -22 45 -89 81 -150 166 -277 25
-37 51 -75 56 -83 6 -8 21 -28 35 -43 14 -15 30 -34 36 -41 15 -18 94 -89 97
-87 6 4 77 -27 77 -34 0 -4 14 -8 30 -8 17 0 30 5 30 10 0 6 7 10 16 10 23 0
102 51 108 70 2 8 12 35 21 59 17 48 12 101 -10 101 -8 0 -17 -15 -21 -36 -8
-46 -43 -69 -101 -67 -91 4 -185 80 -336 273 -7 8 -34 49 -62 90 -27 41 -55
81 -62 88 -7 7 -13 18 -13 23 0 5 0 12 0 16 -1 7 23 14 58 16 12 0 22 5 22 10
0 5 7 7 15 3 8 -3 15 -1 15 5 0 6 5 7 10 4 6 -3 10 -1 10 5 0 6 5 8 10 5 6 -3
10 -1 10 6 0 7 3 9 6 6 9 -8 84 34 84 47 0 5 3 7 6 3 8 -8 54 39 82 84 27 44
30 123 6 172 -15 31 -79 85 -96 80 -4 -2 -8 1 -8 7 0 5 -7 7 -15 4 -8 -4 -15
-1 -15 5 0 7 -10 9 -25 7 -14 -3 -25 -2 -25 2 0 10 -150 7 -172 -3 -10 -4 -25
-5 -33 -1 -8 3 -15 1 -15 -3 0 -5 -8 -8 -17 -6 -10 1 -26 -2 -36 -7 -10 -5
-26 -11 -35 -13 -9 -2 -30 -8 -47 -15 -16 -6 -31 -11 -33 -10 -2 1 -19 -10
-38 -25 -19 -14 -34 -23 -34 -20 0 4 -20 -14 -44 -39 -78 -82 -87 -195 -20
-260 35 -34 90 -46 79 -18 -3 8 -5 16 -5 18 0 3 -4 3 -9 -1 -18 -11 -32 59
-19 96 19 56 84 149 103 149 3 0 16 9 28 21 12 12 34 26 50 31 15 6 27 14 27
20 0 5 4 7 9 3 5 -3 15 0 23 7 13 13 22 16 65 24 12 2 33 8 45 12 64 22 185
-16 207 -65 22 -47 7 -103 -41 -157 -10 -11 -18 -24 -18 -28 0 -5 -4 -7 -9 -3
-6 3 -15 -4 -21 -15 -6 -11 -15 -18 -19 -15 -5 2 -14 -2 -21 -10 -11 -13 -84
-43 -86 -34 0 2 -8 -2 -18 -10 -14 -12 -16 -12 -10 3 3 9 10 16 14 16 4 0 13
12 19 28 7 15 18 38 26 52 25 43 13 90 -25 98 -8 2 -18 8 -21 14 -12 19 -21 9
-51 -49 -16 -31 -32 -60 -36 -63 -10 -7 -52 -68 -52 -75 0 -4 -6 -12 -12 -20
-7 -7 -21 -23 -30 -36 -9 -13 -28 -40 -42 -59 -15 -19 -29 -43 -32 -52 -4 -10
-10 -18 -15 -18 -5 0 -9 -7 -9 -15 0 -8 -4 -15 -9 -15 -5 0 -12 -8 -15 -17 -9
-29 -110 -143 -126 -143 -5 0 -10 -4 -10 -8 0 -7 -34 -8 -50 -2 -3 1 -8 2 -11
2 -4 -1 -21 26 -39 59 -35 66 -65 203 -55 256 8 45 96 199 122 216 7 4 13 15
13 22 0 8 5 15 11 15 5 0 17 16 25 35 15 37 11 75 -12 112 -12 18 -18 20 -44
13 -17 -5 -40 -19 -50 -32 -11 -13 -19 -19 -20 -15 0 5 -23 -15 -50 -44 -28
-29 -50 -50 -50 -46 0 4 -13 -7 -30 -25 -16 -18 -30 -30 -30 -27 0 4 16 24 35
45 19 22 37 47 41 57 3 9 10 17 15 17 5 0 9 4 9 10 0 5 11 26 25 46 58 85 54
185 -11 243 -31 29 -39 31 -108 31 -41 0 -77 -4 -80 -9z"/>
</g>
</svg>
